# This file uses centimeters as units for non-parametric coordinates.

v 0.148778 -0.987688 -0.048341
v 0.126558 -0.987688 -0.091950
v 0.293893 -0.951057 -0.095492
v 0.250000 -0.951057 -0.181636
v -0.250000 -0.951057 -0.181636
v -0.293893 -0.951057 -0.095492
v 0.431771 -0.891007 -0.140291
v 0.367286 -0.891007 -0.266849
v 0.266849 -0.891007 -0.367286
v -0.140291 -0.891007 -0.431771
v -0.266849 -0.891007 -0.367286
v -0.367286 -0.891007 -0.266849
v 0.559017 -0.809017 -0.181636
v 0.475529 -0.809017 -0.345492
v 0.000000 -0.809017 -0.587786
v -0.181636 -0.809017 -0.559017
v -0.587785 -0.809017 0.000000
v 0.587785 -0.809017 0.000000
v 0.672499 -0.707107 -0.218508
v 0.218508 -0.707107 -0.672499
v 0.000000 -0.707107 -0.707107
v -0.672499 -0.707107 -0.218508
v -0.707107 -0.707107 0.000000
v 0.707107 -0.707107 0.000000
v -0.250000 -0.587785 -0.769421
v -0.475528 -0.587785 -0.654509
v 0.809017 -0.587785 0.000000
v 0.275336 -0.453991 -0.847398
v 0.000000 -0.453991 -0.891007
v -0.275336 -0.453991 -0.847398
v -0.523721 -0.453991 -0.720840
v -0.720840 -0.453991 -0.523721
v 0.769421 -0.309017 -0.559017
v 0.559017 -0.309017 -0.769421
v 0.293893 -0.309017 -0.904509
v -0.559017 -0.309017 -0.769421
v 0.939348 -0.156434 -0.305213
v 0.799057 -0.156434 -0.580549
v 0.580549 -0.156434 -0.799057
v -0.987689 -0.156434 0.000000
v 0.809018 0.000000 -0.587786
v 0.587786 0.000000 -0.809017
v 0.000000 0.000000 -1.000000
v -0.309017 0.000000 -0.951057
v -0.951057 0.000000 -0.309017
v -1.000000 0.000000 0.000000
v 0.799057 0.156434 -0.580549
v 0.000000 0.156434 -0.987689
v -0.939348 0.156434 -0.305213
v -0.987689 0.156434 0.000000
v -0.904509 0.309017 -0.293893
v 0.720840 0.453991 -0.523721
v 0.000000 0.453991 -0.891007
v -0.720840 0.453991 -0.523721
v -0.847398 0.453991 -0.275336
v 0.769421 0.587785 -0.250000
v 0.654509 0.587785 -0.475529
v 0.250000 0.587785 -0.769421
v 0.000000 0.587785 -0.809017
v -0.250000 0.587785 -0.769421
v -0.475528 0.587785 -0.654509
v 0.572062 0.707107 -0.415627
v 0.415627 0.707107 -0.572062
v -0.218508 0.707107 -0.672499
v -0.672499 0.707107 -0.218508
v 0.475529 0.809017 -0.345492
v 0.181636 0.809017 -0.559017
v -0.345492 0.809017 -0.475528
v -0.475528 0.809017 -0.345492
v -0.559017 0.809017 -0.181636
v -0.587785 0.809017 0.000000
v 0.431771 0.891007 -0.140291
v 0.367286 0.891007 -0.266849
v 0.266849 0.891007 -0.367286
v 0.140291 0.891007 -0.431771
v -0.266849 0.891007 -0.367286
v -0.431771 0.891007 -0.140291
v -0.453991 0.891007 0.000000
v 0.293893 0.951057 -0.095492
v 0.000000 0.951057 -0.309017
v -0.095492 0.951057 -0.293893
v 0.000000 0.987688 -0.156435
vt 0.000000 0.050000
vt 0.050000 0.050000
vt 0.000000 0.100000
vt 0.050000 0.100000
vt 0.350000 0.100000
vt 0.400000 0.100000
vt 0.050000 0.150000
vt 0.100000 0.150000
vt 0.250000 0.150000
vt 0.300000 0.150000
vt 0.350000 0.150000
vt 1.000000 0.150000
vt 0.050000 0.200000
vt 0.200000 0.200000
vt 0.250000 0.200000
vt 0.450000 0.200000
vt 0.950000 0.200000
vt 1.000000 0.200000
vt 0.150000 0.250000
vt 0.200000 0.250000
vt 0.400000 0.250000
vt 0.450000 0.250000
vt 0.950000 0.250000
vt 1.000000 0.250000
vt 0.250000 0.300000
vt 0.300000 0.300000
vt 0.950000 0.300000
vt 0.150000 0.350000
vt 0.200000 0.350000
vt 0.250000 0.350000
vt 0.300000 0.350000
vt 0.350000 0.350000
vt 0.050000 0.400000
vt 0.100000 0.400000
vt 0.150000 0.400000
vt 0.300000 0.400000
vt 0.000000 0.450000
vt 0.050000 0.450000
vt 0.100000 0.450000
vt 0.450000 0.450000
vt 0.050000 0.500000
vt 0.100000 0.500000
vt 0.200000 0.500000
vt 0.250000 0.500000
vt 0.400000 0.500000
vt 0.450000 0.500000
vt 0.050000 0.550000
vt 0.200000 0.550000
vt 0.400000 0.550000
vt 0.450000 0.550000
vt 0.400000 0.600000
vt 0.050000 0.650000
vt 0.200000 0.650000
vt 0.350000 0.650000
vt 0.400000 0.650000
vt 0.000000 0.700000
vt 0.050000 0.700000
vt 0.150000 0.700000
vt 0.200000 0.700000
vt 0.250000 0.700000
vt 0.300000 0.700000
vt 0.050000 0.750000
vt 0.100000 0.750000
vt 0.250000 0.750000
vt 0.400000 0.750000
vt 0.050000 0.800000
vt 0.150000 0.800000
vt 0.300000 0.800000
vt 0.350000 0.800000
vt 0.400000 0.800000
vt 0.450000 0.800000
vt 0.000000 0.850000
vt 0.050000 0.850000
vt 0.100000 0.850000
vt 0.150000 0.850000
vt 0.300000 0.850000
vt 0.400000 0.850000
vt 0.450000 0.850000
vt 0.000000 0.900000
vt 0.200000 0.900000
vt 0.250000 0.900000
vt 0.200000 0.950000
vn -0.210450 0.971706 0.107229
vn -0.210450 0.971706 0.107229
vn -0.210450 0.971706 0.107229
vn -0.210450 0.971706 0.107230
vn 0.344592 0.922187 0.175578
vn 0.344592 0.922187 0.175578
vn 0.344592 0.922187 0.175578
vn -0.372793 0.849735 0.372794
vn -0.372793 0.849735 0.372794
vn -0.372793 0.849735 0.372794
vn 0.239348 0.849735 0.469747
vn 0.239348 0.849735 0.469747
vn 0.239348 0.849735 0.469747
vn -0.520718 0.849736 0.082473
vn -0.520718 0.849736 0.082473
vn -0.520718 0.849736 0.082473
vn -0.102323 0.756415 0.646039
vn -0.102323 0.756415 0.646039
vn -0.102323 0.756415 0.646039
vn 0.646039 0.756415 0.102323
vn 0.646039 0.756415 0.102323
vn 0.646039 0.756415 0.102323
vn -0.754951 0.644789 0.119571
vn -0.754951 0.644789 0.119571
vn -0.754951 0.644789 0.119571
vn 0.388390 0.517799 0.762258
vn 0.388390 0.517799 0.762258
vn 0.388390 0.517799 0.762258
vn -0.144787 0.378651 0.914144
vn -0.144787 0.378651 0.914144
vn -0.144787 0.378651 0.914144
vn 0.654455 0.378652 0.654455
vn 0.654455 0.378652 0.654455
vn 0.654455 0.378652 0.654455
vn -0.866966 0.230725 0.441741
vn -0.866966 0.230725 0.441741
vn -0.866966 0.230725 0.441741
vn -0.441741 0.230725 0.866966
vn -0.441741 0.230725 0.866966
vn -0.441741 0.230725 0.866966
vn 0.984718 0.077498 0.155964
vn 0.984718 0.077498 0.155964
vn 0.984718 0.077498 0.155964
vn -0.704980 -0.077499 0.704980
vn -0.704980 -0.077499 0.704980
vn -0.704980 -0.077499 0.704980
vn 0.155964 -0.077499 0.984718
vn 0.155964 -0.077499 0.984718
vn 0.155964 -0.077499 0.984718
vn 0.961039 -0.230726 0.152214
vn 0.961039 -0.230726 0.152214
vn 0.961039 -0.230726 0.152214
vn 0.824662 -0.378651 0.420186
vn 0.824662 -0.378651 0.420186
vn 0.824662 -0.378651 0.420186
vn -0.762258 -0.517798 0.388390
vn -0.762259 -0.517798 0.388390
vn -0.762259 -0.517798 0.388390
vn -0.133830 -0.517798 0.844970
vn -0.133830 -0.517798 0.844970
vn -0.133830 -0.517798 0.844970
vn 0.347013 -0.644788 0.681051
vn 0.347013 -0.644788 0.681051
vn 0.347013 -0.644788 0.681051
vn -0.462513 -0.756415 0.462513
vn -0.462513 -0.756415 0.462513
vn -0.462513 -0.756415 0.462513
vn 0.582801 -0.756415 0.296952
vn 0.582801 -0.756415 0.296952
vn 0.582801 -0.756415 0.296952
vn -0.239348 -0.849735 0.469747
vn -0.239348 -0.849736 0.469747
vn -0.239348 -0.849735 0.469747
vn 0.372793 -0.849735 0.372793
vn 0.372793 -0.849735 0.372793
vn 0.372793 -0.849735 0.372793
vn 0.520718 -0.849736 0.082474
vn 0.520718 -0.849736 0.082474
vn 0.520718 -0.849736 0.082474
vn -0.344591 -0.922187 0.175578
vn -0.344591 -0.922187 0.175578
vn -0.344591 -0.922187 0.175578
vn 0.036949 -0.971706 0.233286
vn 0.036949 -0.971706 0.233286
vn 0.036949 -0.971706 0.233286
f 1/1/1 3/3/2 2/2/3
f 2/2/3 3/3/2 4/4/4
f 5/5/5 12/11/6 6/6/7
f 8/7/8 14/13/9 9/8/10
f 10/9/11 16/15/12 11/10/13
f 7/12/14 18/17/15 13/18/16
f 15/14/17 20/19/18 21/20/19
f 17/16/20 22/21/21 23/22/22
f 24/23/23 27/27/24 19/24/25
f 25/25/26 30/30/27 26/26/28
f 28/28/29 35/35/30 29/29/31
f 31/31/32 36/36/33 32/32/34
f 33/33/35 37/37/36 38/38/37
f 34/34/38 39/39/39 35/35/40
f 40/40/41 45/45/42 46/46/43
f 41/41/44 47/47/45 42/42/46
f 43/43/47 48/48/48 44/44/49
f 49/49/50 51/51/51 50/50/52
f 51/51/53 54/54/54 55/55/55
f 52/52/56 56/56/57 57/57/58
f 53/53/59 58/58/60 59/59/61
f 60/60/62 64/64/63 61/61/64
f 62/62/65 66/66/66 63/63/67
f 65/65/68 69/69/69 70/70/70
f 67/67/71 74/74/72 75/75/73
f 68/68/74 76/76/75 69/69/76
f 71/71/77 77/77/78 78/78/79
f 72/72/80 79/79/81 73/73/82
f 80/80/83 82/82/84 81/81/85
