# This file uses centimeters as units for non-parametric coordinates.

v -0.500000 0.000000 0.500000
v -0.388889 0.000000 0.500000
v -0.277778 0.000000 0.500000
v -0.166667 0.000000 0.500000
v -0.055556 0.000000 0.500000
v 0.055556 0.000000 0.500000
v 0.166667 0.000000 0.500000
v 0.277778 0.000000 0.500000
v 0.388889 0.000000 0.500000
v 0.500000 0.000000 0.500000
v -0.500000 0.000000 0.388889
v -0.388889 0.000000 0.388889
v -0.277778 0.000000 0.388889
v -0.166667 0.000000 0.388889
v -0.055556 0.000000 0.388889
v 0.055556 0.000000 0.388889
v 0.166667 0.000000 0.388889
v 0.277778 0.000000 0.388889
v 0.388889 0.000000 0.388889
v 0.500000 0.000000 0.388889
v -0.500000 0.000000 0.277778
v -0.388889 0.000000 0.277778
v -0.277778 0.000000 0.277778
v -0.166667 0.000000 0.277778
v -0.055556 0.000000 0.277778
v 0.055556 0.000000 0.277778
v 0.166667 0.000000 0.277778
v 0.277778 0.000000 0.277778
v 0.388889 0.000000 0.277778
v 0.500000 0.000000 0.277778
v -0.500000 0.000000 0.166667
v -0.388889 0.000000 0.166667
v -0.277778 0.000000 0.166667
v -0.166667 0.000000 0.166667
v -0.055556 0.000000 0.166667
v 0.055556 0.000000 0.166667
v 0.166667 0.000000 0.166667
v 0.277778 0.000000 0.166667
v 0.388889 0.000000 0.166667
v 0.500000 0.000000 0.166667
v -0.500000 0.000000 0.055556
v -0.388889 0.000000 0.055556
v -0.277778 0.000000 0.055556
v -0.166667 0.000000 0.055556
v -0.055556 0.000000 0.055556
v 0.055556 0.000000 0.055556
v 0.166667 0.000000 0.055556
v 0.277778 0.000000 0.055556
v 0.388889 0.000000 0.055556
v 0.500000 0.000000 0.055556
v -0.500000 0.000000 -0.055556
v -0.388889 0.000000 -0.055556
v -0.277778 0.000000 -0.055556
v -0.166667 0.000000 -0.055556
v -0.055556 0.000000 -0.055556
v 0.055556 0.000000 -0.055556
v 0.166667 0.000000 -0.055556
v 0.277778 0.000000 -0.055556
v 0.388889 0.000000 -0.055556
v 0.500000 0.000000 -0.055556
v -0.500000 0.000000 -0.166667
v -0.388889 0.000000 -0.166667
v -0.277778 0.000000 -0.166667
v -0.166667 0.000000 -0.166667
v -0.055556 0.000000 -0.166667
v 0.055556 0.000000 -0.166667
v 0.166667 0.000000 -0.166667
v 0.277778 0.000000 -0.166667
v 0.388889 0.000000 -0.166667
v 0.500000 0.000000 -0.166667
v -0.500000 0.000000 -0.277778
v -0.388889 0.000000 -0.277778
v -0.277778 0.000000 -0.277778
v -0.166667 0.000000 -0.277778
v -0.055556 0.000000 -0.277778
v 0.055556 0.000000 -0.277778
v 0.166667 0.000000 -0.277778
v 0.277778 0.000000 -0.277778
v 0.388889 0.000000 -0.277778
v 0.500000 0.000000 -0.277778
v -0.500000 0.000000 -0.388889
v -0.388889 0.000000 -0.388889
v -0.277778 0.000000 -0.388889
v -0.166667 0.000000 -0.388889
v -0.055556 0.000000 -0.388889
v 0.055556 0.000000 -0.388889
v 0.166667 0.000000 -0.388889
v 0.277778 0.000000 -0.388889
v 0.388889 0.000000 -0.388889
v 0.500000 0.000000 -0.388889
v -0.500000 0.000000 -0.500000
v -0.388889 0.000000 -0.500000
v -0.277778 0.000000 -0.500000
v -0.166667 0.000000 -0.500000
v -0.055556 0.000000 -0.500000
v 0.055556 0.000000 -0.500000
v 0.166667 0.000000 -0.500000
v 0.277778 0.000000 -0.500000
v 0.388889 0.000000 -0.500000
v 0.500000 0.000000 -0.500000
vt 0.000000 0.000000
vt 0.111111 0.000000
vt 0.222222 0.000000
vt 0.333333 0.000000
vt 0.444444 0.000000
vt 0.555556 0.000000
vt 0.666667 0.000000
vt 0.777778 0.000000
vt 0.888889 0.000000
vt 1.000000 0.000000
vt 0.000000 0.111111
vt 0.111111 0.111111
vt 0.222222 0.111111
vt 0.333333 0.111111
vt 0.444444 0.111111
vt 0.555556 0.111111
vt 0.666667 0.111111
vt 0.777778 0.111111
vt 0.888889 0.111111
vt 1.000000 0.111111
vt 0.000000 0.222222
vt 0.111111 0.222222
vt 0.222222 0.222222
vt 0.333333 0.222222
vt 0.444444 0.222222
vt 0.555556 0.222222
vt 0.666667 0.222222
vt 0.777778 0.222222
vt 0.888889 0.222222
vt 1.000000 0.222222
vt 0.000000 0.333333
vt 0.111111 0.333333
vt 0.222222 0.333333
vt 0.333333 0.333333
vt 0.444444 0.333333
vt 0.555556 0.333333
vt 0.666667 0.333333
vt 0.777778 0.333333
vt 0.888889 0.333333
vt 1.000000 0.333333
vt 0.000000 0.444444
vt 0.111111 0.444444
vt 0.222222 0.444444
vt 0.333333 0.444444
vt 0.444444 0.444444
vt 0.555556 0.444444
vt 0.666667 0.444444
vt 0.777778 0.444444
vt 0.888889 0.444444
vt 1.000000 0.444444
vt 0.000000 0.555556
vt 0.111111 0.555556
vt 0.222222 0.555556
vt 0.333333 0.555556
vt 0.444444 0.555556
vt 0.555556 0.555556
vt 0.666667 0.555556
vt 0.777778 0.555556
vt 0.888889 0.555556
vt 1.000000 0.555556
vt 0.000000 0.666667
vt 0.111111 0.666667
vt 0.222222 0.666667
vt 0.333333 0.666667
vt 0.444444 0.666667
vt 0.555556 0.666667
vt 0.666667 0.666667
vt 0.777778 0.666667
vt 0.888889 0.666667
vt 1.000000 0.666667
vt 0.000000 0.777778
vt 0.111111 0.777778
vt 0.222222 0.777778
vt 0.333333 0.777778
vt 0.444444 0.777778
vt 0.555556 0.777778
vt 0.666667 0.777778
vt 0.777778 0.777778
vt 0.888889 0.777778
vt 1.000000 0.777778
vt 0.000000 0.888889
vt 0.111111 0.888889
vt 0.222222 0.888889
vt 0.333333 0.888889
vt 0.444444 0.888889
vt 0.555556 0.888889
vt 0.666667 0.888889
vt 0.777778 0.888889
vt 0.888889 0.888889
vt 1.000000 0.888889
vt 0.000000 1.000000
vt 0.111111 1.000000
vt 0.222222 1.000000
vt 0.333333 1.000000
vt 0.444444 1.000000
vt 0.555556 1.000000
vt 0.666667 1.000000
vt 0.777778 1.000000
vt 0.888889 1.000000
vt 1.000000 1.000000
vn 0.000000 -1.000000 0.000000
vn 0.000000 -1.000000 0.000000
vn 0.000000 -1.000000 0.000000
vn 0.000000 -1.000000 0.000000
vn 0.000000 -1.000000 0.000000
vn 0.000000 -1.000000 0.000000
vn 0.000000 -1.000000 0.000000
vn 0.000000 -1.000000 0.000000
vn 0.000000 -1.000000 0.000000
vn 0.000000 -1.000000 0.000000
vn 0.000000 -1.000000 0.000000
vn 0.000000 -1.000000 0.000000
vn 0.000000 -1.000000 0.000000
vn 0.000000 -1.000000 0.000000
vn 0.000000 -1.000000 0.000000
vn 0.000000 -1.000000 0.000000
vn 0.000000 -1.000000 0.000000
vn 0.000000 -1.000000 0.000000
vn 0.000000 -1.000000 0.000000
vn 0.000000 -1.000000 0.000000
vn 0.000000 -1.000000 0.000000
vn 0.000000 -1.000000 0.000000
vn 0.000000 -1.000000 0.000000
vn 0.000000 -1.000000 0.000000
vn 0.000000 -1.000000 0.000000
vn 0.000000 -1.000000 0.000000
vn 0.000000 -1.000000 0.000000
vn 0.000000 -1.000000 0.000000
vn 0.000000 -1.000000 0.000000
vn 0.000000 -1.000000 0.000000
vn 0.000000 -1.000000 0.000000
vn 0.000000 -1.000000 0.000000
vn 0.000000 -1.000000 0.000000
vn 0.000000 -1.000000 0.000000
vn 0.000000 -1.000000 0.000000
vn 0.000000 -1.000000 0.000000
vn 0.000000 -1.000000 0.000000
vn 0.000000 -1.000000 0.000000
vn 0.000000 -1.000000 0.000000
vn 0.000000 -1.000000 0.000000
vn 0.000000 -1.000000 0.000000
vn 0.000000 -1.000000 0.000000
vn 0.000000 -1.000000 0.000000
vn 0.000000 -1.000000 0.000000
vn 0.000000 -1.000000 0.000000
vn 0.000000 -1.000000 0.000000
vn 0.000000 -1.000000 0.000000
vn 0.000000 -1.000000 0.000000
vn 0.000000 -1.000000 0.000000
vn 0.000000 -1.000000 0.000000
vn 0.000000 -1.000000 0.000000
vn 0.000000 -1.000000 0.000000
vn 0.000000 -1.000000 0.000000
vn 0.000000 -1.000000 0.000000
vn 0.000000 -1.000000 0.000000
vn 0.000000 -1.000000 0.000000
vn 0.000000 -1.000000 0.000000
vn 0.000000 -1.000000 0.000000
vn 0.000000 -1.000000 0.000000
vn 0.000000 -1.000000 0.000000
vn 0.000000 -1.000000 0.000000
vn 0.000000 -1.000000 0.000000
vn 0.000000 -1.000000 0.000000
vn 0.000000 -1.000000 0.000000
vn 0.000000 -1.000000 0.000000
vn 0.000000 -1.000000 0.000000
vn 0.000000 -1.000000 0.000000
vn 0.000000 -1.000000 0.000000
vn 0.000000 -1.000000 0.000000
vn 0.000000 -1.000000 0.000000
vn 0.000000 -1.000000 0.000000
vn 0.000000 -1.000000 0.000000
vn 0.000000 -1.000000 0.000000
vn 0.000000 -1.000000 0.000000
vn 0.000000 -1.000000 0.000000
vn 0.000000 -1.000000 0.000000
vn 0.000000 -1.000000 0.000000
vn 0.000000 -1.000000 0.000000
vn 0.000000 -1.000000 0.000000
vn 0.000000 -1.000000 0.000000
vn 0.000000 -1.000000 0.000000
vn 0.000000 -1.000000 0.000000
vn 0.000000 -1.000000 0.000000
vn 0.000000 -1.000000 0.000000
vn 0.000000 -1.000000 0.000000
vn 0.000000 -1.000000 0.000000
vn 0.000000 -1.000000 0.000000
vn 0.000000 -1.000000 0.000000
vn 0.000000 -1.000000 0.000000
vn 0.000000 -1.000000 0.000000
vn 0.000000 -1.000000 0.000000
vn 0.000000 -1.000000 0.000000
vn 0.000000 -1.000000 0.000000
vn 0.000000 -1.000000 0.000000
vn 0.000000 -1.000000 0.000000
vn 0.000000 -1.000000 0.000000
vn 0.000000 -1.000000 0.000000
vn 0.000000 -1.000000 0.000000
vn 0.000000 -1.000000 0.000000
vn 0.000000 -1.000000 0.000000
vn 0.000000 -1.000000 0.000000
vn 0.000000 -1.000000 0.000000
vn 0.000000 -1.000000 0.000000
vn 0.000000 -1.000000 0.000000
vn 0.000000 -1.000000 0.000000
vn 0.000000 -1.000000 0.000000
vn 0.000000 -1.000000 0.000000
vn 0.000000 -1.000000 0.000000
vn 0.000000 -1.000000 0.000000
vn 0.000000 -1.000000 0.000000
vn 0.000000 -1.000000 0.000000
vn 0.000000 -1.000000 0.000000
vn 0.000000 -1.000000 0.000000
vn 0.000000 -1.000000 0.000000
vn 0.000000 -1.000000 0.000000
vn 0.000000 -1.000000 0.000000
vn 0.000000 -1.000000 0.000000
vn 0.000000 -1.000000 0.000000
vn 0.000000 -1.000000 0.000000
vn 0.000000 -1.000000 0.000000
vn 0.000000 -1.000000 0.000000
vn 0.000000 -1.000000 0.000000
vn 0.000000 -1.000000 0.000000
vn 0.000000 -1.000000 0.000000
vn 0.000000 -1.000000 0.000000
vn 0.000000 -1.000000 0.000000
vn 0.000000 -1.000000 0.000000
vn 0.000000 -1.000000 0.000000
vn 0.000000 -1.000000 0.000000
vn 0.000000 -1.000000 0.000000
vn 0.000000 -1.000000 0.000000
vn 0.000000 -1.000000 0.000000
vn 0.000000 -1.000000 0.000000
vn 0.000000 -1.000000 0.000000
vn 0.000000 -1.000000 0.000000
vn 0.000000 -1.000000 0.000000
vn 0.000000 -1.000000 0.000000
vn 0.000000 -1.000000 0.000000
vn 0.000000 -1.000000 0.000000
vn 0.000000 -1.000000 0.000000
vn 0.000000 -1.000000 0.000000
vn 0.000000 -1.000000 0.000000
vn 0.000000 -1.000000 0.000000
vn 0.000000 -1.000000 0.000000
vn 0.000000 -1.000000 0.000000
vn 0.000000 -1.000000 0.000000
vn 0.000000 -1.000000 0.000000
vn 0.000000 -1.000000 0.000000
vn 0.000000 -1.000000 0.000000
vn 0.000000 -1.000000 0.000000
vn 0.000000 -1.000000 0.000000
vn 0.000000 -1.000000 0.000000
vn 0.000000 -1.000000 0.000000
vn 0.000000 -1.000000 0.000000
vn 0.000000 -1.000000 0.000000
vn 0.000000 -1.000000 0.000000
vn 0.000000 -1.000000 0.000000
vn 0.000000 -1.000000 0.000000
vn 0.000000 -1.000000 0.000000
vn 0.000000 -1.000000 0.000000
vn 0.000000 -1.000000 0.000000
vn 0.000000 -1.000000 0.000000
vn 0.000000 -1.000000 0.000000
vn 0.000000 -1.000000 0.000000
f 1/1/1 11/11/2 12/12/3 2/2/4
f 3/3/5 13/13/6 14/14/7 4/4/8
f 5/5/9 15/15/10 16/16/11 6/6/12
f 7/7/13 17/17/14 18/18/15 8/8/16
f 9/9/17 19/19/18 20/20/19 10/10/20
f 12/12/21 22/22/22 23/23/23 13/13/24
f 14/14/25 24/24/26 25/25/27 15/15/28
f 16/16/29 26/26/30 27/27/31 17/17/32
f 18/18/33 28/28/34 29/29/35 19/19/36
f 21/21/37 31/31/38 32/32/39 22/22/40
f 23/23/41 33/33/42 34/34/43 24/24/44
f 25/25/45 35/35/46 36/36/47 26/26/48
f 27/27/49 37/37/50 38/38/51 28/28/52
f 29/29/53 39/39/54 40/40/55 30/30/56
f 32/32/57 42/42/58 43/43/59 33/33/60
f 34/34/61 44/44/62 45/45/63 35/35/64
f 36/36/65 46/46/66 47/47/67 37/37/68
f 38/38/69 48/48/70 49/49/71 39/39/72
f 41/41/73 51/51/74 52/52/75 42/42/76
f 43/43/77 53/53/78 54/54/79 44/44/80
f 45/45/81 55/55/82 56/56/83 46/46/84
f 47/47/85 57/57/86 58/58/87 48/48/88
f 49/49/89 59/59/90 60/60/91 50/50/92
f 52/52/93 62/62/94 63/63/95 53/53/96
f 54/54/97 64/64/98 65/65/99 55/55/100
f 56/56/101 66/66/102 67/67/103 57/57/104
f 58/58/105 68/68/106 69/69/107 59/59/108
f 61/61/109 71/71/110 72/72/111 62/62/112
f 63/63/113 73/73/114 74/74/115 64/64/116
f 65/65/117 75/75/118 76/76/119 66/66/120
f 67/67/121 77/77/122 78/78/123 68/68/124
f 69/69/125 79/79/126 80/80/127 70/70/128
f 72/72/129 82/82/130 83/83/131 73/73/132
f 74/74/133 84/84/134 85/85/135 75/75/136
f 76/76/137 86/86/138 87/87/139 77/77/140
f 78/78/141 88/88/142 89/89/143 79/79/144
f 81/81/145 91/91/146 92/92/147 82/82/148
f 83/83/149 93/93/150 94/94/151 84/84/152
f 85/85/153 95/95/154 96/96/155 86/86/156
f 87/87/157 97/97/158 98/98/159 88/88/160
f 89/89/161 99/99/162 100/100/163 90/90/164
